# xmcd CD database file
#
# Track frame offsets:
#	150
#	28600
#	55875
#	84740
#	109972
#	130855
#	168597
#	192597
#	211192
#	229030
#	243737
#	256627
#	268597
#	288402
#	312357
#
# Disc length: 4654 seconds
#
# Revision: 4
# Processed by: cddbd v1.5.2PL0 Copyright (c) Steve Scherf et al.
# Submitted via: CDex 1.70beta2
#
DISCID=da122c0f
DTITLE=Van Morrison - Too Long In Exile
DYEAR=1993
DGENRE=Country
TTITLE0=Too Long In Exile
TTITLE1=Bigtime Operators
TTITLE2=Lonely Avenue
TTITLE3=Ball and Chain
TTITLE4=In The Forest
TTITLE5=Till We Get The Healing Done
TTITLE6=Gloria
TTITLE7=Good Morning Little Schoolgirl
TTITLE8=Wasted Years
TTITLE9=The Lonesome Road
TTITLE10=Moody's Mood For Love
TTITLE11=Close Enough For Jazz
TTITLE12=Before The World Was Made
TTITLE13=I'll Take Care Of You
TTITLE14=Instrumental - Tell Me What You Want
EXTD=YEAR: 1993
EXTT0=
EXTT1=
EXTT2=
EXTT3=
EXTT4=
EXTT5=
EXTT6=
EXTT7=
EXTT8=
EXTT9=
EXTT10=
EXTT11=
EXTT12=
EXTT13=
EXTT14=
PLAYORDER=
